<svg xmlns="http://www.w3.org/2000/svg" xmlns:xlink="http://www.w3.org/1999/xlink" width="21" height="15" viewBox="0 0 21 15">
    <defs>
        <path id="prefix__a" d="M0 1.116L20 1.116 20 3.616 0 3.616z"/>
    </defs>
    <g fill="none" fill-rule="evenodd">
        <path fill="#40A280" d="M18.75 8.817H1.25C.56 8.817 0 8.258 0 7.567s.56-1.25 1.25-1.25h17.5c.69 0 1.25.559 1.25 1.25s-.56 1.25-1.25 1.25" transform="translate(.75 -.5)"/>
        <g transform="translate(.75 -.5) translate(0 .134)">
            <mask id="prefix__b" fill="#fff">
                <use xlink:href="#prefix__a"/>
            </mask>
            <path fill="#40A280" d="M18.75 3.616H1.25C.56 3.616 0 3.057 0 2.366c0-.692.56-1.25 1.25-1.25h17.5c.69 0 1.25.558 1.25 1.25 0 .691-.56 1.25-1.25 1.25" mask="url(#prefix__b)"/>
        </g>
        <path fill="#40A280" d="M18.75 13.884H1.25c-.69 0-1.25-.559-1.25-1.25s.56-1.25 1.25-1.25h17.5c.69 0 1.25.559 1.25 1.25s-.56 1.25-1.25 1.25" transform="translate(.75 -.5)"/>
    </g>
</svg>
