<svg xmlns="http://www.w3.org/2000/svg" width="36" height="36" viewBox="0 0 36 36">
    <g fill="none" fill-rule="evenodd">
        <rect width="36" height="36" fill="#3B5998" rx="4"/>
        <path fill="#FFF" fill-rule="nonzero" d="M19.55 11.638c.09-.09.388-.29 1.265-.29.519.003 1.037.05 1.548.138l.863.152.774-4.18-.857-.166c-2.763-.525-5.001-.338-6.355.525-.837.518-1.482 1.294-1.838 2.211-.283.905-.407 1.851-.366 2.798v.884H12v3.959h2.584v12.186h4.677V17.662h3.364V13.71h-3.364v-.65c0-1.084.242-1.374.29-1.422z"/>
    </g>
</svg>
