<svg xmlns="http://www.w3.org/2000/svg" xmlns:xlink="http://www.w3.org/1999/xlink" width="778" height="317" viewBox="0 0 778 317">
    <defs>
        <linearGradient id="prefix__d" x1="77.664%" x2="-12.119%" y1="20.237%" y2="68.44%">
            <stop offset="0%" stop-color="#18BC82"/>
            <stop offset="100%" stop-color="#FFFCEA"/>
        </linearGradient>
        <linearGradient id="prefix__e" x1="70.294%" x2="32.572%" y1="13.742%" y2="95.741%">
            <stop offset="0%" stop-color="#7EFACE"/>
            <stop offset="100%" stop-color="#82D0B9"/>
        </linearGradient>
        <linearGradient id="prefix__f" x1="77.642%" x2="-12.226%" y1="20.237%" y2="68.524%">
            <stop offset="0%" stop-color="#82E2C1"/>
            <stop offset="100%" stop-color="#FFF569"/>
        </linearGradient>
        <filter id="prefix__b" width="112.1%" height="129.7%" x="-6%" y="-13.9%" filterUnits="objectBoundingBox">
            <feMorphology in="SourceAlpha" operator="dilate" radius=".5" result="shadowSpreadOuter1"/>
            <feOffset dy="3" in="shadowSpreadOuter1" result="shadowOffsetOuter1"/>
            <feGaussianBlur in="shadowOffsetOuter1" result="shadowBlurOuter1" stdDeviation="15"/>
            <feComposite in="shadowBlurOuter1" in2="SourceAlpha" operator="out" result="shadowBlurOuter1"/>
            <feColorMatrix in="shadowBlurOuter1" values="0 0 0 0 0.322909757 0 0 0 0 0.798262002 0 0 0 0 0.648493486 0 0 0 0.5 0"/>
        </filter>
        <path id="prefix__a" d="M0 0H778V317H0z"/>
    </defs>
    <g fill="none" fill-rule="evenodd">
        <mask id="prefix__c" fill="#fff">
            <use xlink:href="#prefix__a"/>
        </mask>
        <use fill="#000" filter="url(#prefix__b)" xlink:href="#prefix__a"/>
        <use fill="#246755" stroke="#979797" xlink:href="#prefix__a"/>
        <g fill-opacity=".05" mask="url(#prefix__c)">
            <g>
                <path fill="url(#prefix__d)" fill-rule="nonzero" d="M534.407 368.077c121.257 171.548 50.464 291.985-212.378 361.31C59.187 798.712-42.755 887.447 16.203 995.59V368.077h518.204z" transform="translate(-136.96 -539.954)"/>
                <path fill="url(#prefix__e)" d="M489.312 352.885c-49.125 145.672-37.44 238.381 35.053 278.128 108.74 59.62 79.976 122.507-108.683 231.396-188.658 108.89-173.156 176.514-125.244 259.475 31.94 55.307 193.883 76.158 485.826 62.552 97.48-219.505 146.696-333.2 147.65-341.083.955-7.883.456-112.559-1.496-314.026l-68.76-196.757-364.346 20.315z" transform="translate(-136.96 -539.954) rotate(50 591.825 760.518)"/>
                <path fill="url(#prefix__f)" fill-rule="nonzero" d="M875.608 140.458c154.429 218.508 64.323 371.875-270.318 460.101-334.641 88.227-464.415 201.212-389.322 338.955l-.152-799.182 659.792.126z" style="mix-blend-mode:lighten" transform="translate(-136.96 -539.954) rotate(54 572.038 539.923)"/>
            </g>
        </g>
    </g>
</svg>
