<svg xmlns="http://www.w3.org/2000/svg" width="48" height="48" viewBox="0 0 48 48">
    <g fill="none" fill-rule="evenodd">
        <rect width="48" height="48" fill="#FFF" rx="24"/>
        <path fill="#246755" d="M30.135 14h-12.27C15.735 14 14 15.733 14 17.865v12.27C14 32.267 15.734 34 17.865 34h12.27C32.265 34 34 32.267 34 30.135v-12.27C34 15.733 32.266 14 30.135 14zm1.109 2.306l.442-.002v3.39l-3.38.01-.012-3.39 2.95-.008zm-10.098 5.64c.64-.886 1.68-1.467 2.854-1.467 1.175 0 2.214.581 2.854 1.468.417.578.667 1.286.667 2.053 0 1.94-1.58 3.52-3.521 3.52-1.94 0-3.52-1.58-3.52-3.52 0-.767.25-1.475.666-2.053zm10.906 8.189c0 1.057-.86 1.917-1.917 1.917h-12.27c-1.057 0-1.917-.86-1.917-1.917v-8.188h2.987c-.258.635-.403 1.327-.403 2.053 0 3.015 2.453 5.47 5.468 5.47 3.016 0 5.47-2.455 5.47-5.47 0-.726-.148-1.418-.404-2.053h2.986v8.188z"/>
    </g>
</svg>
