<svg xmlns="http://www.w3.org/2000/svg" width="36" height="36" viewBox="0 0 36 36">
    <g fill="none" fill-rule="evenodd">
        <rect width="36" height="36" fill="#35C200" rx="4"/>
        <path fill="#FFF" fill-rule="nonzero" d="M28.949 15.269l-.007-.056v-.003-.003l-.026-.212c-.005-.042-.01-.09-.018-.146l-.005-.044-.01.001c-.27-1.526-1.006-2.974-2.148-4.211-1.136-1.23-2.613-2.203-4.27-2.81C21.045 7.264 19.54 7 17.99 7c-2.094 0-4.127.492-5.88 1.424-3.381 1.796-5.375 5.098-5.08 8.411.152 1.715.824 3.347 1.942 4.72 1.053 1.293 2.477 2.336 4.118 3.017 1.01.419 2.007.616 3.064.825l.123.025c.291.057.37.136.39.167.037.059.017.173.002.236-.013.059-.028.117-.042.175-.113.462-.23.94-.138 1.468.106.607.484.954 1.038.954.597 0 1.275-.4 1.724-.664l.06-.035c1.071-.63 2.08-1.339 2.84-1.887 1.661-1.198 3.545-2.557 4.957-4.315 1.421-1.771 2.091-4.046 1.842-6.252zM13.85 18.624h-1.898c-.287 0-.52-.233-.52-.52V14.12c0-.286.233-.519.52-.519.287 0 .52.233.52.52v3.464h1.378c.287 0 .52.232.52.52 0 .286-.233.519-.52.519zm1.98-.534c0 .287-.232.52-.52.52-.286 0-.519-.233-.519-.52v-3.984c0-.287.233-.52.52-.52.287 0 .52.233.52.52v3.984zm4.694 0c0 .225-.144.425-.358.494-.053.017-.107.025-.16.025-.164 0-.322-.077-.421-.214l-1.87-2.575v2.27c0 .287-.233.52-.52.52-.286 0-.519-.233-.519-.52v-3.87c0-.225.145-.424.359-.494s.448.007.58.19l1.87 2.575v-2.385c0-.287.233-.52.52-.52.287 0 .52.233.52.52v3.984zm3.785.438h-2.57c-.287 0-.52-.233-.52-.52v-3.983c0-.287.233-.52.52-.52h2.49c.287 0 .52.233.52.52 0 .286-.233.519-.52.519H22.26v.953h1.6c.286 0 .519.233.519.52 0 .286-.233.519-.52.519h-1.6v.953h2.052c.287 0 .52.232.52.52 0 .286-.233.519-.52.519z"/>
    </g>
</svg>
