<svg xmlns="http://www.w3.org/2000/svg" viewBox="0 0 207.28 39.37"><defs><style>.cls-1{fill:#efdd00;}.cls-2{fill:#f4eb9f;}.cls-3{fill:#9dbda5;}.cls-4{fill:#cedbdd;}.cls-5{fill:#246755;}.cls-6{fill:#8bcc96;}.cls-7{fill:#3db75a;}</style></defs><title>Asset 22</title><g id="Layer_2" data-name="Layer 2"><g id="Layer_1-2" data-name="Layer 1"><path class="cls-1" d="M19.86,25.41l-.08-.09.06-.06S19.85,25.36,19.86,25.41Z"/><path class="cls-1" d="M45.64,15a15,15,0,0,1-5.74,11.8,2.19,2.19,0,0,0-.52-.84l-8.6-8.59a2.15,2.15,0,0,0-2.07-.56,2.08,2.08,0,0,0-1,.56l-6,6v-19a.17.17,0,0,0,0-.07.68.68,0,0,0,0-.19.14.14,0,0,0,0-.06,1.54,1.54,0,0,0-.05-.17l0-.06-.05-.11a.05.05,0,0,1,0,0l-.07-.1a.64.64,0,0,0-.1-.13l-.1-.12L21.68,3a15,15,0,0,1,24,12Z"/><path class="cls-2" d="M7.7,17.54V33.63a22.86,22.86,0,0,0-2.34,1A9.49,9.49,0,0,1,7.7,17.54Z"/><path class="cls-2" d="M19.86,25.41l-.08-.09.06-.06S19.85,25.36,19.86,25.41Z"/><path class="cls-3" d="M28.71,6.07V16.8a2.08,2.08,0,0,0-1,.56l-6,6v-19a.17.17,0,0,0,0-.07.68.68,0,0,0,0-.19.14.14,0,0,0,0-.06,1.54,1.54,0,0,0-.05-.17l0-.06-.05-.11a.05.05,0,0,1,0,0l-.07-.1a.64.64,0,0,0-.1-.13l-.1-.12L21.2,3.2l-.06-.05-.06,0A.24.24,0,0,0,21,3L20.86,3a.61.61,0,0,0-.14-.07h0l-.15-.07h0l-.07,0-.12,0A1.35,1.35,0,0,0,20,2.67a1.14,1.14,0,0,1,.45,0L21.68,3l5.85,1.36A1.71,1.71,0,0,1,28.71,6.07Z"/><path class="cls-4" d="M19.78,25.32l.06-.06,1.93-1.93v-19a.17.17,0,0,0,0-.07.68.68,0,0,0,0-.19.14.14,0,0,0,0-.06,1.54,1.54,0,0,0-.05-.17l0-.06-.05-.11a.05.05,0,0,1,0,0l-.07-.1a.64.64,0,0,0-.1-.13l-.1-.12L21.2,3.2l-.06-.05-.06,0A.24.24,0,0,0,21,3L20.86,3a.61.61,0,0,0-.14-.07h0l-.15-.07h0l-.07,0-.12,0A1.35,1.35,0,0,0,20,2.67a2.23,2.23,0,0,0-.63,0l-10,1.65A1.85,1.85,0,0,0,7.7,6.07V33.63a18.35,18.35,0,0,1,10-.85,18.88,18.88,0,0,1,3.36,1V29h-1.9a2.15,2.15,0,0,1,0-3Zm-1.07-11-3.05.34-4.7.54V12.6a.72.72,0,0,1,.53-.69l4.63-.64L17.84,11a.71.71,0,0,1,.87.69Zm0-4.58L16.5,10,11,10.64V8a.71.71,0,0,1,.53-.69l6.35-.88a.68.68,0,0,1,.45,0,.7.7,0,0,1,.42.65Z"/><path class="cls-4" d="M19.86,25.41l-.08-.09.06-.06S19.85,25.36,19.86,25.41Z"/><path class="cls-5" d="M39.38,29H37.47v5.37a1.88,1.88,0,0,1,0,.34,16.84,16.84,0,0,0-6.08-.25V32.74a2.27,2.27,0,0,0-2.28-2.29,2.34,2.34,0,0,0-.38,0,2.3,2.3,0,0,0-1.91,2.26v3c-.46.19-.91.39-1.33.59a22.7,22.7,0,0,0-3.7-2.16c-.25-.12-.5-.22-.75-.33V29h-1.9a2.15,2.15,0,0,1,0-3l.66-.66.08.09c0-.05,0-.1,0-.15l1.93-1.93,6-6a2.08,2.08,0,0,1,1-.56,2.15,2.15,0,0,1,2.07.56L39.38,26a2.19,2.19,0,0,1,.52.84h0A2.14,2.14,0,0,1,39.38,29Z"/><path class="cls-5" d="M19.86,25.41l-.08-.09.06-.06S19.85,25.36,19.86,25.41Z"/><path class="cls-4" d="M31.37,32.74v1.72a18.13,18.13,0,0,0-2.66.58,19.42,19.42,0,0,0-1.91.66v-3a2.3,2.3,0,0,1,1.91-2.26,2.34,2.34,0,0,1,.38,0,2.27,2.27,0,0,1,2.28,2.29Z"/><path class="cls-6" d="M44.39,39.37H29.45c-.77-.76-1.54-1.44-2.3-2.06q-.52-.44-1-.81l-.34-.25c.43-.2.88-.4,1.35-.59A18.94,18.94,0,0,1,29,35a18.54,18.54,0,0,1,2.69-.58,16.79,16.79,0,0,1,6.15.25,19.53,19.53,0,0,1,7,3.21A.83.83,0,0,1,44.39,39.37Z"/><path class="cls-7" d="M29.45,39.37H.83A.82.82,0,0,1,.3,37.92a26.82,26.82,0,0,1,5.12-3.35,24.26,24.26,0,0,1,2.36-1,18.51,18.51,0,0,1,10.08-.85,18.75,18.75,0,0,1,3.4,1c.25.1.51.21.76.33a22.45,22.45,0,0,1,3.74,2.18l.34.25q.52.38,1,.81C27.91,37.93,28.68,38.61,29.45,39.37Z"/><path class="cls-3" d="M18.71,7.14V9.76L16.5,10,11,10.64V8a.71.71,0,0,1,.53-.69l6.35-.88a.68.68,0,0,1,.45,0A.7.7,0,0,1,18.71,7.14Z"/><path class="cls-3" d="M18.71,11.72v2.62l-3.05.34-4.7.54V12.6a.72.72,0,0,1,.53-.69l4.63-.64L17.84,11A.71.71,0,0,1,18.71,11.72Z"/><path class="cls-5" d="M70.43,10.9a7.63,7.63,0,0,1,4.7,7.36,8,8,0,0,1-1.22,4.43,7.82,7.82,0,0,1-3.48,2.91,13.07,13.07,0,0,1-5.33,1H60.45V33H55.1V9.87h10A12.89,12.89,0,0,1,70.43,10.9Zm-2,10.31a3.61,3.61,0,0,0,1.26-2.95,3.65,3.65,0,0,0-1.26-3,5.6,5.6,0,0,0-3.66-1H60.45v8H64.8A5.6,5.6,0,0,0,68.46,21.21Z"/><path class="cls-5" d="M85.31,15.62A9.23,9.23,0,0,1,88.92,15v4.75c-.57-.05-1-.07-1.15-.07a4.71,4.71,0,0,0-3.47,1.24,5,5,0,0,0-1.25,3.71V33H77.9V15.22h4.92v2.34A5.7,5.7,0,0,1,85.31,15.62Z"/><path class="cls-5" d="M94.58,32.07a8.71,8.71,0,0,1-4.73-8,8.91,8.91,0,0,1,1.25-4.72,8.73,8.73,0,0,1,3.48-3.25,11.38,11.38,0,0,1,10,0,8.67,8.67,0,0,1,3.46,3.25,8.91,8.91,0,0,1,1.26,4.72,8.94,8.94,0,0,1-1.26,4.72,8.81,8.81,0,0,1-3.46,3.25,11.38,11.38,0,0,1-10,0Zm8.28-4.39a5,5,0,0,0,1.27-3.58,5,5,0,0,0-1.27-3.58,4.28,4.28,0,0,0-3.25-1.34,4.33,4.33,0,0,0-3.26,1.34,4.93,4.93,0,0,0-1.29,3.58,4.94,4.94,0,0,0,1.29,3.58A4.33,4.33,0,0,0,99.61,29,4.27,4.27,0,0,0,102.86,27.68Z"/><path class="cls-5" d="M113.77,32.69a11.27,11.27,0,0,1-3.37-1.37l1.72-3.69A10.69,10.69,0,0,0,115,28.86a12,12,0,0,0,3.3.48c2.18,0,3.27-.54,3.27-1.61a1.15,1.15,0,0,0-.89-1.09,13.08,13.08,0,0,0-2.74-.56,27.63,27.63,0,0,1-3.6-.76,5.66,5.66,0,0,1-2.46-1.52,4.33,4.33,0,0,1-1-3.1,4.87,4.87,0,0,1,1-3,6.3,6.3,0,0,1,2.83-2,12.28,12.28,0,0,1,4.41-.72,16.94,16.94,0,0,1,3.74.41,10.09,10.09,0,0,1,3.09,1.14l-1.72,3.66a10.22,10.22,0,0,0-5.11-1.32,5.21,5.21,0,0,0-2.48.46,1.36,1.36,0,0,0-.82,1.19,1.17,1.17,0,0,0,.89,1.15,15.8,15.8,0,0,0,2.84.63,28.74,28.74,0,0,1,3.56.78,5.24,5.24,0,0,1,2.41,1.5,4.26,4.26,0,0,1,1,3,4.7,4.7,0,0,1-1,2.94,6.36,6.36,0,0,1-2.88,2,13,13,0,0,1-4.51.71A17,17,0,0,1,113.77,32.69Z"/><path class="cls-5" d="M143.32,16.09a8.18,8.18,0,0,1,3.18,3.21,9.64,9.64,0,0,1,1.16,4.8,9.69,9.69,0,0,1-1.16,4.8,8.22,8.22,0,0,1-3.18,3.2,9.05,9.05,0,0,1-4.51,1.14,6.86,6.86,0,0,1-5.34-2.15v8.28h-5.15V15.22h4.92v2A6.81,6.81,0,0,1,138.81,15,9.15,9.15,0,0,1,143.32,16.09Zm-2.15,11.59a5,5,0,0,0,1.27-3.58,5,5,0,0,0-1.27-3.58,4.61,4.61,0,0,0-6.5,0,5,5,0,0,0-1.27,3.58,5,5,0,0,0,1.27,3.58,4.64,4.64,0,0,0,6.5,0Z"/><path class="cls-5" d="M167.72,25.55H154.29A4.16,4.16,0,0,0,156,28.16a5.72,5.72,0,0,0,3.36.95,6.93,6.93,0,0,0,2.46-.41,6.19,6.19,0,0,0,2-1.3l2.73,3q-2.51,2.86-7.32,2.87a11.59,11.59,0,0,1-5.31-1.17,8.73,8.73,0,0,1-3.57-3.25,9,9,0,0,1-1.25-4.72,9.06,9.06,0,0,1,1.24-4.71,8.6,8.6,0,0,1,3.4-3.26,10.53,10.53,0,0,1,9.55-.05,8.14,8.14,0,0,1,3.31,3.22,9.48,9.48,0,0,1,1.21,4.86C167.82,24.23,167.79,24.69,167.72,25.55Zm-12-5.71a4.2,4.2,0,0,0-1.46,2.71H163a4.26,4.26,0,0,0-1.45-2.69,4.37,4.37,0,0,0-2.91-1A4.42,4.42,0,0,0,155.68,19.84Z"/><path class="cls-5" d="M176.89,26l-2.47,2.44V33h-5.15V8.49h5.15V22.35l7.52-7.13h6.14l-7.39,7.52L188.74,33H182.5Z"/><path class="cls-5" d="M207.28,15.22V33H202.4V30.86A6.9,6.9,0,0,1,200,32.63a7.82,7.82,0,0,1-3.07.61,7.52,7.52,0,0,1-5.54-2q-2.06-2-2-6v-10h5.15v9.27q0,4.29,3.59,4.29a3.85,3.85,0,0,0,3-1.2A5.07,5.07,0,0,0,202.14,24V15.22Z"/></g></g></svg>