<svg xmlns="http://www.w3.org/2000/svg" width="36" height="36" viewBox="0 0 36 36">
    <g fill="none" fill-rule="evenodd">
        <rect width="36" height="36" fill="#00ACED" rx="4"/>
        <path fill="#FFF" fill-rule="nonzero" d="M23.024 21.952c.83-.204 1.595-.61 2.228-1.182 1.52-1.27 3.06-4.727 2.026-8.779-.307-1.02-.681-2.02-1.12-2.991-1.07 1.774-2.626 3.204-4.485 4.12-1.073.56-2.206 1.002-3.376 1.316-.091-2.308-1.989-4.131-4.298-4.131-2.31 0-4.206 1.823-4.298 4.13L7 15.389l2.701 1.52s-.317 5.563 6.327 8.73C22.673 28.805 29 24.187 29 24.187c-2.123-.332-4.156-1.092-5.976-2.235zM12.956 14.76c-.53 0-.96-.43-.96-.959 0-.53.43-.959.96-.959s.959.43.959.96c0 .529-.43.958-.96.958z"/>
    </g>
</svg>
