<svg xmlns="http://www.w3.org/2000/svg" width="36" height="36" viewBox="0 0 36 36">
    <g fill="none" fill-rule="evenodd">
        <rect width="36" height="36" fill="#1BD741" rx="4"/>
        <g fill="#FFF" fill-rule="nonzero">
            <path d="M.035 22.765l1.591-5.65C.603 15.375.064 13.398.064 11.366.064 5.112 5.154.023 11.41.023c6.255 0 11.344 5.089 11.344 11.344 0 6.255-5.09 11.344-11.344 11.344-1.95 0-3.858-.499-5.546-1.446l-5.828 1.5zm6.126-3.564l.347.212c1.472.899 3.167 1.374 4.9 1.374 5.195 0 9.42-4.226 9.42-9.42s-4.225-9.42-9.42-9.42c-5.194 0-9.42 4.226-9.42 9.42 0 1.81.515 3.567 1.488 5.082l.234.365-.916 3.254L6.16 19.2z" transform="translate(6.596 6.596)"/>
            <path d="M8.222 6.087l-.736-.04c-.231-.013-.458.065-.633.216-.357.31-.927.91-1.103 1.69-.261 1.164.143 2.59 1.188 4.015 1.046 1.426 2.994 3.706 6.438 4.68 1.11.314 1.984.103 2.657-.328.534-.342.902-.89 1.034-1.509l.118-.549c.037-.174-.051-.351-.213-.426l-2.488-1.147c-.162-.074-.353-.027-.462.114l-.976 1.266c-.074.095-.2.133-.314.093-.67-.235-2.91-1.173-4.139-3.541-.053-.103-.04-.227.036-.315l.933-1.08c.095-.11.12-.265.062-.399L8.552 6.318c-.057-.133-.185-.223-.33-.23z" transform="translate(6.596 6.596)"/>
        </g>
    </g>
</svg>
