<svg xmlns="http://www.w3.org/2000/svg" width="194" height="40" viewBox="0 0 194 40">
    <g fill="none" fill-rule="nonzero">
        <path fill="#EFDD00" d="M19.86 25.41l-.08-.09.06-.06s.01.1.02.15zM45.64 15a15 15 0 0 1-5.74 11.8 2.19 2.19 0 0 0-.52-.84l-8.6-8.59a2.15 2.15 0 0 0-2.07-.56 2.08 2.08 0 0 0-1 .56l-6 6v-19a.17.17 0 0 0 0-.07.68.68 0 0 0 0-.19.14.14 0 0 0 0-.06 1.54 1.54 0 0 0-.05-.17v-.06l-.05-.11-.07-.1a.64.64 0 0 0-.1-.13l-.1-.12.34-.36a15 15 0 0 1 24 12h-.04z"/>
        <path fill="#F4EB9F" d="M7.7 17.54v16.09c-.798.29-1.58.623-2.34 1A9.49 9.49 0 0 1 7.7 17.54zM19.86 25.41l-.08-.09.06-.06s.01.1.02.15z"/>
        <path fill="#9DBDA5" d="M28.71 6.07V16.8a2.08 2.08 0 0 0-1 .56l-6 6v-19a.17.17 0 0 0 0-.07.68.68 0 0 0 0-.19.14.14 0 0 0 0-.06 1.54 1.54 0 0 0-.05-.17v-.06l-.05-.11-.07-.1a.64.64 0 0 0-.1-.13l-.1-.12-.14-.15-.06-.05h-.06A.24.24 0 0 0 21 3h-.14a.61.61 0 0 0-.14-.07l-.15-.07h-.19a1.35 1.35 0 0 0-.38-.19c.149-.03.301-.03.45 0l1.23.33 5.85 1.36a1.71 1.71 0 0 1 1.18 1.71z"/>
        <path fill="#CEDBDD" d="M19.78 25.32l.06-.06 1.93-1.93v-19a.17.17 0 0 0 0-.07.68.68 0 0 0 0-.19.14.14 0 0 0 0-.06 1.54 1.54 0 0 0-.05-.17v-.06l-.05-.11-.07-.1a.64.64 0 0 0-.1-.13l-.1-.12-.2-.12-.06-.05h-.06A.24.24 0 0 0 21 3h-.14a.61.61 0 0 0-.14-.07l-.15-.07h-.19a1.35 1.35 0 0 0-.38-.19 2.23 2.23 0 0 0-.63 0l-10 1.65A1.85 1.85 0 0 0 7.7 6.07v27.56a18.35 18.35 0 0 1 10-.85 18.88 18.88 0 0 1 3.36 1V29h-1.9a2.15 2.15 0 0 1 0-3l.62-.68zm-1.07-11l-3.05.34-4.7.54v-2.6a.72.72 0 0 1 .53-.69l4.63-.64 1.72-.27a.71.71 0 0 1 .87.69v2.63zm0-4.58L16.5 10l-5.5.64V8a.71.71 0 0 1 .53-.69l6.35-.88a.68.68 0 0 1 .45 0 .7.7 0 0 1 .42.65l-.04 2.66z"/>
        <path fill="#CEDBDD" d="M19.86 25.41l-.08-.09.06-.06s.01.1.02.15z"/>
        <path fill="#246755" d="M39.38 29h-1.91v5.37c.01.113.01.227 0 .34a16.84 16.84 0 0 0-6.08-.25v-1.72a2.27 2.27 0 0 0-2.28-2.29 2.34 2.34 0 0 0-.38 0 2.3 2.3 0 0 0-1.91 2.26v3c-.46.19-.91.39-1.33.59a22.7 22.7 0 0 0-3.7-2.16c-.25-.12-.5-.22-.75-.33V29h-1.9a2.15 2.15 0 0 1 0-3l.66-.66.08.09v-.15l1.93-1.93 6-6a2.08 2.08 0 0 1 1-.56 2.15 2.15 0 0 1 2.07.56l8.5 8.65c.235.237.413.524.52.84a2.14 2.14 0 0 1-.52 2.16z"/>
        <path fill="#246755" d="M19.86 25.41l-.08-.09.06-.06s.01.1.02.15z"/>
        <path fill="#CEDBDD" d="M31.37 32.74v1.72c-.9.126-1.79.32-2.66.58a19.42 19.42 0 0 0-1.91.66v-3a2.3 2.3 0 0 1 1.91-2.26c.126-.01.254-.01.38 0a2.27 2.27 0 0 1 2.28 2.29v.01z"/>
        <path fill="#8BCC96" d="M44.39 39.37H29.45c-.77-.76-1.54-1.44-2.3-2.06a28.32 28.32 0 0 0-1-.81l-.34-.25c.43-.2.88-.4 1.35-.59A18.94 18.94 0 0 1 29 35a18.54 18.54 0 0 1 2.69-.58 16.79 16.79 0 0 1 6.15.25 19.53 19.53 0 0 1 7 3.21.83.83 0 0 1-.45 1.49z"/>
        <path fill="#3DB75A" d="M29.45 39.37H.83a.82.82 0 0 1-.53-1.45 26.82 26.82 0 0 1 5.12-3.35 24.26 24.26 0 0 1 2.36-1 18.51 18.51 0 0 1 10.08-.85c1.162.225 2.3.56 3.4 1 .25.1.51.21.76.33a22.45 22.45 0 0 1 3.74 2.18l.34.25c.347.253.68.523 1 .81.81.64 1.58 1.32 2.35 2.08z"/>
        <path fill="#9DBDA5" d="M18.71 7.14v2.62L16.5 10l-5.5.64V8a.71.71 0 0 1 .53-.69l6.35-.88a.68.68 0 0 1 .45 0 .7.7 0 0 1 .38.71zM18.71 11.72v2.62l-3.05.34-4.7.54V12.6a.72.72 0 0 1 .53-.69l4.63-.64 1.72-.27a.71.71 0 0 1 .87.72z"/>
        <g fill="#246755">
            <path d="M70.672 10.448c2.654 1.112 4.34 3.78 4.222 6.681a7.32 7.32 0 0 1-1.096 4.022 7.044 7.044 0 0 1-3.126 2.641 11.635 11.635 0 0 1-4.788.908h-4.178v5.81H56.9V9.513h8.984a11.475 11.475 0 0 1 4.788.935zm-1.797 9.36a3.293 3.293 0 0 0 1.132-2.679 3.33 3.33 0 0 0-1.132-2.723 4.992 4.992 0 0 0-3.288-.908h-3.88v7.262h3.907a4.993 4.993 0 0 0 3.288-.953h-.027zM84.624 14.065a8.534 8.534 0 0 1 3.276-.551v4.22a15.541 15.541 0 0 0-1.044-.061 4.328 4.328 0 0 0-3.148 1.102 4.386 4.386 0 0 0-1.135 3.297v7.438H77.9v-15.8h4.465v2.079a5.159 5.159 0 0 1 2.26-1.724zM92.28 29.522c-2.764-1.343-4.466-4.071-4.377-7.012a7.495 7.495 0 0 1 1.157-4.137 7.92 7.92 0 0 1 3.22-2.849 11.056 11.056 0 0 1 9.252 0 7.863 7.863 0 0 1 3.201 2.849 7.497 7.497 0 0 1 1.166 4.137 7.522 7.522 0 0 1-1.166 4.137 7.99 7.99 0 0 1-3.201 2.849 11.056 11.056 0 0 1-9.252 0v.026zm7.66-3.848a4.245 4.245 0 0 0 1.175-3.138 4.245 4.245 0 0 0-1.175-3.138 4.073 4.073 0 0 0-3.007-1.174 4.122 4.122 0 0 0-3.016 1.174 4.188 4.188 0 0 0-1.193 3.138 4.197 4.197 0 0 0 1.193 3.138 4.124 4.124 0 0 0 3.016 1.157 4.066 4.066 0 0 0 3.007-1.157zM110.034 30.034a10.854 10.854 0 0 1-3.134-1.2l1.6-3.234c.832.48 1.734.844 2.678 1.078.998.274 2.03.415 3.07.42 2.027 0 3.041-.473 3.041-1.41-.013-.46-.353-.853-.828-.956a12.82 12.82 0 0 0-2.548-.491 27.073 27.073 0 0 1-3.348-.666 5.324 5.324 0 0 1-2.288-1.332 3.653 3.653 0 0 1-.93-2.717 4.11 4.11 0 0 1 .93-2.63 5.868 5.868 0 0 1 2.632-1.753 12.057 12.057 0 0 1 4.101-.63c1.17-.003 2.337.118 3.479.359 1.01.182 1.98.52 2.874.999l-1.6 3.208a9.965 9.965 0 0 0-4.753-1.157 5.106 5.106 0 0 0-2.306.403 1.196 1.196 0 0 0-.763 1.043c-.006.476.337.894.828 1.008.86.26 1.745.445 2.641.552 1.118.162 2.224.39 3.312.684.86.235 1.637.69 2.241 1.314.657.732.99 1.673.93 2.63a3.969 3.969 0 0 1-.93 2.576 5.932 5.932 0 0 1-2.679 1.753c-1.348.44-2.768.65-4.194.623a16.73 16.73 0 0 1-4.056-.474zM136.084 14.511a7.29 7.29 0 0 1 2.794 2.896 8.88 8.88 0 0 1 1.02 4.33 8.926 8.926 0 0 1-1.02 4.329 7.324 7.324 0 0 1-2.794 2.886 7.794 7.794 0 0 1-3.964 1.029 5.95 5.95 0 0 1-4.694-1.94v7.469H122.9V13.726h4.324v1.805a5.907 5.907 0 0 1 4.896-2.003 7.877 7.877 0 0 1 3.964.983zm-1.89 10.455a4.583 4.583 0 0 0 1.116-3.23 4.583 4.583 0 0 0-1.116-3.229 3.979 3.979 0 0 0-5.713 0 4.583 4.583 0 0 0-1.116 3.23 4.583 4.583 0 0 0 1.116 3.229 4.004 4.004 0 0 0 5.713 0zM158.816 23.33h-12.2c.19.984.747 1.854 1.553 2.426.903.613 1.97.922 3.052.884a6.164 6.164 0 0 0 2.235-.382 5.612 5.612 0 0 0 1.817-1.208l2.48 2.79c-1.52 1.772-3.737 2.662-6.65 2.668a10.326 10.326 0 0 1-4.823-1.088 8.001 8.001 0 0 1-3.243-3.022 8.521 8.521 0 0 1-1.136-4.389 8.579 8.579 0 0 1 1.126-4.38 7.896 7.896 0 0 1 3.09-3.031 9.37 9.37 0 0 1 8.675-.047 7.477 7.477 0 0 1 3.006 2.995 8.98 8.98 0 0 1 1.1 4.519c.009.037-.019.465-.082 1.264zm-10.901-5.31a3.933 3.933 0 0 0-1.327 2.52h7.94a3.989 3.989 0 0 0-1.317-2.502 3.912 3.912 0 0 0-2.644-.93 3.955 3.955 0 0 0-2.689.912h.037zM166.945 24.227l-2.284 2.19v4.093H159.9v-22h4.761v12.44l6.952-6.4h5.677l-6.832 6.75 7.442 9.21h-5.769zM193.9 14.51v15.777h-4.364v-1.9a6.168 6.168 0 0 1-2.146 1.571 7.04 7.04 0 0 1-2.746.542 6.756 6.756 0 0 1-4.954-1.775c-1.228-1.183-1.824-2.958-1.788-5.324v-8.873h4.605v8.225c0 2.538 1.07 3.807 3.21 3.807a3.457 3.457 0 0 0 2.683-1.065 4.474 4.474 0 0 0 .903-3.194V14.51h4.597z"/>
        </g>
    </g>
</svg>
