<svg xmlns="http://www.w3.org/2000/svg" xmlns:xlink="http://www.w3.org/1999/xlink" width="960" height="391" viewBox="0 0 960 391">
    <defs>
        <path id="a" d="M0 0h960v391H0z"/>
        <filter id="b" width="109.8%" height="124%" x="-4.9%" y="-11.3%" filterUnits="objectBoundingBox">
            <feMorphology in="SourceAlpha" operator="dilate" radius=".5" result="shadowSpreadOuter1"/>
            <feOffset dy="3" in="shadowSpreadOuter1" result="shadowOffsetOuter1"/>
            <feGaussianBlur in="shadowOffsetOuter1" result="shadowBlurOuter1" stdDeviation="15"/>
            <feComposite in="shadowBlurOuter1" in2="SourceAlpha" operator="out" result="shadowBlurOuter1"/>
            <feColorMatrix in="shadowBlurOuter1" values="0 0 0 0 0.322909757 0 0 0 0 0.798262002 0 0 0 0 0.648493486 0 0 0 0.5 0"/>
        </filter>
        <linearGradient id="d" x1="77.686%" x2="-12.169%" y1="20.237%" y2="68.44%">
            <stop offset="0%" stop-color="#18BC82"/>
            <stop offset="100%" stop-color="#FFFCEA"/>
        </linearGradient>
        <linearGradient id="e" x1="70.292%" x2="32.574%" y1="13.742%" y2="95.741%">
            <stop offset="0%" stop-color="#7EFACE"/>
            <stop offset="100%" stop-color="#82D0B9"/>
        </linearGradient>
        <linearGradient id="f" x1="77.642%" x2="-12.227%" y1="20.237%" y2="68.524%">
            <stop offset="0%" stop-color="#82E2C1"/>
            <stop offset="100%" stop-color="#FFF569"/>
        </linearGradient>
    </defs>
    <g fill="none" fill-rule="evenodd">
        <mask id="c" fill="#fff">
            <use xlink:href="#a"/>
        </mask>
        <use fill="#000" filter="url(#b)" xlink:href="#a"/>
        <use fill="#246755" stroke="#979797" xlink:href="#a"/>
        <g fill-opacity=".05" mask="url(#c)">
            <path fill="url(#d)" fill-rule="nonzero" d="M659.423 454c149.622 211.594 62.269 360.146-262.06 445.654C73.032 985.162-52.758 1094.61 19.992 1228V454h639.43z" transform="translate(-169 -666)"/>
            <path fill="url(#e)" d="M603.948 435.152c-60.638 179.731-46.246 294.107 43.175 343.126 134.131 73.529 98.632 151.12-134.132 285.506-232.764 134.387-213.656 217.813-154.57 320.152 39.39 68.227 239.164 93.911 599.32 77.054 120.309-270.833 181.052-411.113 182.232-420.84 1.18-9.726.59-138.867-1.77-387.422L1053.427 410l-449.478 25.152z" transform="rotate(50 1359.895 423.79)"/>
            <path fill="url(#f)" fill-rule="nonzero" d="M1080.375 173c190.453 269.55 79.262 458.79-333.575 567.72C333.963 849.648 173.846 989.075 266.449 1159V173h813.926z" style="mix-blend-mode:lighten" transform="rotate(54 1274.83 167.16)"/>
        </g>
    </g>
</svg>
